<svg xmlns="http://www.w3.org/2000/svg" version="1.1" xmlns:xlink="http://www.w3.org/1999/xlink" viewBox="0 0 3.3161063751140696 3.948681719046583"><g transform="matrix(0.8571428571428572,0,0,0.8571428571428572,0.47741999140748115,2.4670740175663575)"><g transform="matrix(1,0,0,1,0,0)" clip-path="url(#SvgjsClipPath12286)"><g clip-path="url(#SvgjsClipPath122842cd0e9ce-2df4-4406-80b4-01d247e04a8f)"><path d=" M 0.3574273969807027 -1.8812244369515612 C 0.3574273969807027 -1.7407492270007199 0.3577621578132948 -1.5407439764197952 0.360459373664465 -1.4267340014341598 C 0.3619801443039546 -1.3629859743134165 0.3437595904157302 -1.3010934786647552 0.3093653060157012 -1.248985563922998 C 0.34376915501094707 -1.1968776491812414 0.3619801443039546 -1.1348129908186753 0.360459373664465 -1.0710745282931489 C 0.3577621578132948 -0.9570741179027302 0.3574273969807027 -0.7572314654404932 0.3574273969807027 -0.6167562554896517 C 0.3574273969807027 -0.5233292894108192 0.3869437378201046 -0.4884185168690769 0.4122325275736298 -0.48690731082480365 L 0.4667028973339649 -0.48690731082480365 L 0.4667028973339649 -0.22669293335339447 L 0.41661311218297725 -0.22517216271390517 C 0.4154366669712966 -0.22517216271390517 0.4137437336179025 -0.22500000000000053 0.4117256040271334 -0.22500000000000053 C 0.38339527299462894 -0.22500000000000053 0.2881127754437145 -0.231408278795334 0.20547467276956266 -0.3116839264509079 C 0.13262115100231558 -0.3821749931995768 0.09552008615589953 -0.48487961663881785 0.09552008615589953 -0.6167562554896517 C 0.09552008615589953 -0.7160845768173216 0.09653393324889258 -0.8152407354310869 0.09737561762798116 -0.9027663462610827 C 0.0980547038883822 -0.9698811108981804 0.09856162743487873 -1.029583314242168 0.09856162743487873 -1.0756272756164005 C 0.09856162743487873 -1.1132352640093133 0.0423983243211496 -1.2489855639229979 -0.004305594123049872 -1.2489855639229979 C 0.01896506603970609 -1.2489855639229979 0.04477034393494471 -1.2828824893717474 0.0646647019861294 -1.3215043248576528 C 0.08455906003731412 -1.3601261603435586 0.09856162743487873 -1.4034633412714037 0.09856162743487873 -1.4221812541109078 C 0.09856162743487873 -1.4682156508899231 0.0980547038883822 -1.5279178542339111 0.09737561762798116 -1.5952047815849133 C 0.09653393324889258 -1.6827303924149088 0.09552008615589953 -1.7818865510286743 0.09552008615589953 -1.881214872356344 C 0.09552008615589953 -2.013091511207178 0.1326211510023156 -2.1156239719325147 0.20564683548346713 -2.186287201395088 C 0.2940141306925515 -2.2721198788716896 0.3970535149643846 -2.2733058886785873 0.41661311218297725 -2.2727989651320906 L 0.4667028973339649 -2.2712781944926013 L 0.4667028973339649 -2.011063817021192 L 0.4120603648597254 -2.011063817021192 C 0.3867620105109833 -2.0092082855491102 0.35741783238548586 -1.9741349148886802 0.35741783238548586 -1.881214872356344 Z" fill="#000000" transform="matrix(1,0,0,1,0,0)" fill-rule="nonzero"></path></g><g clip-path="url(#SvgjsClipPath122842cd0e9ce-2df4-4406-80b4-01d247e04a8f)"><path d=" M 2.397383394034922 -1.8812244369515612 C 2.397383394034922 -1.7407492270007199 2.39704863320233 -1.5407439764197952 2.3943514173511597 -1.4267340014341598 C 2.39283064671167 -1.3629859743134165 2.411051200599895 -1.3010934786647552 2.4454454849999236 -1.248985563922998 C 2.411041636004678 -1.1968776491812414 2.39283064671167 -1.1348129908186753 2.3943514173511597 -1.0710745282931489 C 2.39704863320233 -0.9570741179027302 2.397383394034922 -0.7572314654404932 2.397383394034922 -0.6167562554896517 C 2.397383394034922 -0.5233292894108192 2.36786705319552 -0.4884185168690769 2.3425782634419945 -0.48690731082480365 L 2.28810789368166 -0.48690731082480365 C 2.28810789368166 -0.48690731082480365 2.28810789368166 -0.22669293335339447 2.28810789368166 -0.22669293335339447 L 2.3381976788326475 -0.22517216271390517 C 2.339374124044328 -0.22517216271390517 2.3410670573977224 -0.22500000000000053 2.343085186988491 -0.22500000000000053 C 2.3714155180209957 -0.22500000000000053 2.466698015571911 -0.231408278795334 2.549336118246062 -0.3116839264509079 C 2.622189640013309 -0.3821749931995768 2.659290704859725 -0.48487961663881785 2.659290704859725 -0.6167562554896517 C 2.659290704859725 -0.7160845768173216 2.658276857766732 -0.8152407354310869 2.6574351733876433 -0.9027663462610827 C 2.6567560871272424 -0.9698811108981804 2.656249163580746 -1.029583314242168 2.656249163580746 -1.0756272756164005 C 2.656249163580746 -1.1132352640093133 2.712412466694475 -1.2489855639229979 2.759116385138675 -1.2489855639229979 C 2.735845724975919 -1.2489855639229979 2.7100404470806803 -1.2828824893717474 2.6901460890294953 -1.3215043248576528 C 2.6702517309783107 -1.3601261603435586 2.656249163580746 -1.4034633412714037 2.656249163580746 -1.4221812541109078 C 2.656249163580746 -1.4682156508899231 2.656756087127243 -1.5279178542339111 2.6574351733876433 -1.5952047815849133 C 2.658276857766732 -1.6827303924149088 2.659290704859725 -1.7818865510286743 2.659290704859725 -1.881214872356344 C 2.659290704859725 -2.013091511207178 2.622189640013309 -2.1156239719325147 2.549163955532158 -2.186287201395088 C 2.4607966603230733 -2.2721198788716896 2.3577572760512404 -2.2733058886785873 2.3381976788326475 -2.2727989651320906 L 2.28810789368166 -2.2712781944926013 L 2.28810789368166 -2.011063817021192 C 2.28810789368166 -2.011063817021192 2.3427504261558996 -2.011063817021192 2.3427504261558996 -2.011063817021192 C 2.3680487805046417 -2.0092082855491102 2.3973929586301392 -1.9741349148886802 2.3973929586301392 -1.881214872356344 Z" fill="#000000" transform="matrix(1,0,0,1,0,0)" fill-rule="nonzero"></path></g><g clip-path="url(#SvgjsClipPath122842cd0e9ce-2df4-4406-80b4-01d247e04a8f)"><path d=" M 0.5483462821055575 -1.9366895246144553 L 0.5483462821055575 -0.5788613292402318 L 2.2064645089100674 -0.5788613292402318 L 2.2064645089100674 -1.9366895246144553 L 0.5483462821055575 -1.9366895246144553 Z M 1.067589027241478 -1.3968159475956472 L 0.890117962991607 -1.2577371685464758 L 1.067589027241478 -1.1186583894973041 L 1.067589027241478 -0.9432532778142866 L 0.6660960138210068 -1.2577276039512586 L 1.067589027241478 -1.5720680257551938 L 1.067589027241478 -1.3968063830004303 Z M 1.3160198234056473 -0.9167880428490811 L 1.1674529659012953 -0.9167880428490811 L 1.4387909676099775 -1.5987723756008227 L 1.5873673897095464 -1.5987723756008227 L 1.3160198234056473 -0.9167880428490811 Z M 1.6872217637741465 -0.9432628424095038 L 1.6872217637741465 -1.1186679540925215 L 1.8646928280240176 -1.257746733141693 L 1.6872217637741465 -1.3968255121908646 L 1.6872217637741465 -1.5720871549456283 L 2.0887147771946175 -1.2577467331416932 L 1.6872217637741465 -0.9432724070047214 Z" fill="#51a8db" transform="matrix(1,0,0,1,0,0)" fill-rule="nonzero"></path></g></g><g><path d=" M 0.075364013671875 0.5619375000000001 Q 0.075364013671875 0.48437841796875003 0.0954854736328125 0.4123070068359376 Q 0.11560693359374999 0.3402355957031251 0.154386474609375 0.27804199218750014 Q 0.193166015625 0.21584838867187506 0.249506103515625 0.16463012695312507 Q 0.30584619140624997 0.11341186523437508 0.3779176025390625 0.0768273925781251 Q 0.449989013671875 0.04024291992187501 0.53706005859375 0.020121459960937615 Q 0.624131103515625 0 0.7243725585937499 0 Q 0.78876123046875 0 0.8476622314453125 0.008048583984375135 Q 0.906563232421875 0.016097167968750048 0.9585131835937499 0.030365112304687525 Q 1.010463134765625 0.044633056640625 1.0547303466796876 0.0632911376953127 Q 1.09899755859375 0.08194921875000016 1.134850341796875 0.1024365234375002 L 1.071925048828125 0.22536035156250012 Q 1.030950439453125 0.20560473632812515 0.9786346435546874 0.19206848144531263 Q 0.9263188476562499 0.17853222656250012 0.869978759765625 0.17853222656250012 Q 0.7946147460937499 0.17853222656250012 0.73022607421875 0.20560473632812515 Q 0.66583740234375 0.23267724609375007 0.61900927734375 0.28243212890625014 Q 0.57218115234375 0.3321870117187501 0.5454744873046875 0.4027950439453126 Q 0.518767822265625 0.47340307617187505 0.518767822265625 0.5612058105468751 Q 0.518767822265625 0.6482768554687501 0.545108642578125 0.7188848876953126 Q 0.5714494628906249 0.7894929199218751 0.6179117431640625 0.8396136474609376 Q 0.6643740234375 0.8897343750000001 0.7283968505859375 0.9171727294921875 Q 0.7924196777343749 0.9446110839843751 0.8670520019531249 0.9446110839843751 L 0.8670520019531249 0.5765712890625001 L 1.293626953125 0.5765712890625001 L 1.21753125 0.7148605957031251 L 1.21753125 1.010463134765625 L 1.218262939453125 1.0119265136718751 Q 1.18241015625 1.0331455078125 1.1297285156249999 1.052901123046875 Q 1.077046875 1.07265673828125 1.0122923583984376 1.0883880615234376 Q 0.947537841796875 1.104119384765625 0.874368896484375 1.11363134765625 Q 0.8011999511718749 1.123143310546875 0.7243725585937499 1.123143310546875 Q 0.574376220703125 1.123143310546875 0.4540133056640625 1.0788760986328125 Q 0.333650390625 1.03460888671875 0.249506103515625 0.9581473388671875 Q 0.16536181640625 0.881685791015625 0.12036291503906249 0.7796151123046875 Q 0.075364013671875 0.67754443359375 0.075364013671875 0.5619375000000001 M 1.456793701171875 0.017560546875000194 L 1.879710205078125 0.017560546875000194 L 1.879710205078125 0.47340307617187505 L 2.1921416015624997 0.47340307617187505 L 2.1921416015624997 0.017560546875000194 L 2.615789794921875 0.017560546875000194 L 2.6150581054687496 1.10485107421875 L 2.1921416015624997 1.10485107421875 L 2.1921416015624997 0.6409599609375001 L 1.879710205078125 0.6409599609375001 L 1.879710205078125 1.10485107421875 L 1.456793701171875 1.10485107421875 L 1.456793701171875 0.017560546875000194" fill="#000000" fill-rule="nonzero"></path></g><g></g></g><defs><clipPath id="SvgjsClipPath12286"><path d=" M -0.004305594123049872 -2.272854012647363 h 2.7634219792617247 v 2.0478540126473628 h -2.7634219792617247 Z"></path></clipPath><clipPath id="SvgjsClipPath122842cd0e9ce-2df4-4406-80b4-01d247e04a8f"><path d=" M -0.004305594123049872 -2.272854012647363 L 2.759116385138675 -2.272854012647363 L 2.759116385138675 -0.2250000000000001 L -0.004305594123049872 -0.2250000000000001 Z"></path></clipPath></defs></svg>